<svg width="43" height="25" viewBox="0 0 43 25" fill="none" xmlns="http://www.w3.org/2000/svg">
<path d="M10.1462 6.51788H18.2564V7.13892H10.8896V11.8126H17.8171V12.4336H10.8896V17.5649H18.3408V18.1858H10.1462V6.51788ZM18.983 6.51788H19.8447L23.6632 11.6492L27.5662 6.5178L32.8749 0L24.1532 12.1885L28.6476 18.1858H27.752L23.6632 12.7278L19.5574 18.1858H18.6788L23.207 12.1884L18.983 6.51788ZM28.9686 7.13892V6.5178H38.2109V7.13884H33.953V18.1858H33.2095V7.13892H28.9686ZM0 6.5178H0.929287L13.7436 24.9905L8.44816 18.1858L0.777191 7.40032L0.74343 18.1859H0V6.5178ZM38.136 17.3773C37.984 17.3773 37.8702 17.2641 37.8702 17.1175C37.8702 16.971 37.984 16.8576 38.136 16.8576C38.2897 16.8576 38.4018 16.971 38.4018 17.1175C38.4018 17.264 38.2897 17.3773 38.136 17.3773ZM38.8665 16.6937H39.2643C39.2697 16.9012 39.427 17.0408 39.6584 17.0408C39.917 17.0408 40.0635 16.8908 40.0635 16.61V14.8308H40.4685V16.6117C40.4685 17.1175 40.1648 17.4088 39.662 17.4088C39.19 17.4088 38.8665 17.1263 38.8665 16.6937ZM40.9983 16.671H41.3998C41.4341 16.91 41.6764 17.0617 42.0254 17.0617C42.3509 17.0617 42.5896 16.8994 42.5896 16.6762C42.5896 16.4844 42.4376 16.3693 42.0923 16.2908L41.7559 16.2123C41.2839 16.1058 41.0689 15.8861 41.0689 15.5163C41.0689 15.0681 41.4486 14.7698 42.0181 14.7698C42.5479 14.7698 42.9349 15.068 42.9584 15.4919H42.5642C42.5262 15.26 42.3165 15.1151 42.0127 15.1151C41.6927 15.1151 41.4794 15.2634 41.4794 15.4901C41.4794 15.6697 41.6167 15.7727 41.9567 15.8494L42.2441 15.9175C42.7794 16.0379 43 16.2472 43 16.6256C43 17.107 42.6131 17.4088 41.9947 17.4088C41.4161 17.4088 41.0272 17.121 40.9983 16.671Z" fill="white"/>
</svg>